<?xml version="1.0" encoding="utf-8"?>
<!-- Generator: Adobe Illustrator 16.0.0, SVG Export Plug-In . SVG Version: 6.00 Build 0)  -->
<!DOCTYPE svg PUBLIC "-//W3C//DTD SVG 1.1//EN" "http://www.w3.org/Graphics/SVG/1.1/DTD/svg11.dtd">
<svg version="1.1" id="Layer_1" xmlns="http://www.w3.org/2000/svg" xmlns:xlink="http://www.w3.org/1999/xlink" x="0px" y="0px"
	 width="63.399px" height="44.798px" viewBox="0 0 63.399 44.798" enable-background="new 0 0 63.399 44.798" xml:space="preserve">
<path fill="#FFFFFF" d="M40.945,44.798H14.529C6.518,44.798,0,38.311,0,30.338c0-7.974,6.518-14.461,14.529-14.461
	c1.636,0,3.22,0.262,4.728,0.779C21.856,6.914,30.734,0,40.945,0c12.381,0,22.454,10.056,22.454,22.417
	C63.399,34.758,53.326,44.798,40.945,44.798z M14.529,18.518c-6.555,0-11.887,5.302-11.887,11.82
	c0,6.517,5.332,11.818,11.887,11.818h26.416c10.925,0,19.812-8.855,19.812-19.739c0-10.904-8.888-19.775-19.812-19.775
	c-9.483,0-17.664,6.759-19.452,16.072c-0.077,0.401-0.336,0.745-0.7,0.929c-0.365,0.186-0.794,0.19-1.164,0.014
	C18.041,18.901,16.325,18.518,14.529,18.518z"/>
</svg>
